<?xml version="1.0" standalone="no"?>
<!DOCTYPE svg PUBLIC "-//W3C//DTD SVG 20010904//EN"
 "http://www.w3.org/TR/2001/REC-SVG-20010904/DTD/svg10.dtd">
<svg version="1.0" xmlns="http://www.w3.org/2000/svg"
 width="500.000000pt" height="500.000000pt" viewBox="0 0 500.000000 500.000000"
 preserveAspectRatio="xMidYMid meet">
<metadata>
Created by potrace 1.14, written by Peter Selinger 2001-2017
</metadata>
<g transform="translate(0.000000,500.000000) scale(0.100000,-0.100000)"
fill="#000000" stroke="none">
<path d="M0 2500 l0 -2500 2500 0 2500 0 0 2500 0 2500 -2500 0 -2500 0 0
-2500z m2303 1466 c29 -75 33 -321 6 -447 l-11 -56 -162 -17 c-185 -20 -528
-55 -538 -56 -6 0 1 -501 8 -508 1 -2 62 6 136 18 73 12 188 24 254 27 l122 6
16 -72 c16 -71 35 -267 36 -367 l0 -50 -257 -12 c-142 -6 -268 -14 -280 -18
-25 -7 -25 -12 -44 -539 -6 -181 -14 -359 -17 -395 l-7 -65 -115 -22 c-123
-24 -299 -43 -392 -43 l-58 0 0 148 c0 571 -78 1671 -154 2161 -15 96 -19 144
-12 146 6 2 83 8 171 14 186 13 520 54 942 116 342 49 349 50 356 31z m1442
-170 c44 -15 104 -41 133 -59 84 -50 183 -161 231 -258 44 -89 81 -218 81
-279 0 -37 0 -37 -62 -54 -162 -42 -376 -70 -492 -64 l-59 3 -23 105 c-45 201
-89 270 -171 270 -41 0 -50 -5 -86 -41 -64 -68 -113 -211 -144 -416 -22 -153
-25 -571 -4 -683 42 -230 151 -327 314 -278 50 15 134 92 167 152 l24 45 -18
148 c-9 81 -20 169 -23 195 l-5 46 58 12 c160 33 222 41 382 47 l172 6 0 -135
c0 -245 32 -544 87 -808 14 -69 28 -137 30 -151 5 -26 2 -28 -64 -42 -65 -15
-170 -29 -314 -42 l-67 -5 -45 102 c-24 57 -53 129 -62 160 l-18 57 -78 -73
c-79 -74 -173 -131 -274 -166 -73 -25 -242 -44 -318 -35 -282 31 -489 226
-574 541 -26 94 -27 111 -28 334 0 247 6 300 52 485 102 410 353 740 654 862
101 41 181 53 329 49 115 -3 147 -7 215 -30z"/>
</g>
</svg>
